G04 Layer: BottomSolderMaskLayer*
G04 EasyEDA v6.4.31, 2022-02-22 10:28:06*
G04 1f45f90a0094410aae7a0ad7bfb46af4,bc126c73947d4e58bf32f0bec63d0957,10*
G04 Gerber Generator version 0.2*
G04 Scale: 100 percent, Rotated: No, Reflected: No *
G04 Dimensions in millimeters *
G04 leading zeros omitted , absolute positions ,4 integer and 5 decimal *
%FSLAX45Y45*%
%MOMM*%

%ADD10C,0.0001*%

%LPD*%
G36*
X1855876Y2308555D02*
G01*
X1851406Y2307945D01*
X1847088Y2306370D01*
X1842871Y2303881D01*
X1838655Y2300427D01*
X1834438Y2295956D01*
X1830171Y2290470D01*
X1825853Y2283866D01*
X1821332Y2276195D01*
X1813560Y2261311D01*
X1802130Y2237435D01*
X1796897Y2225649D01*
X1787398Y2202383D01*
X1783130Y2190851D01*
X1775460Y2167890D01*
X1772056Y2156409D01*
X1767535Y2139086D01*
X1762455Y2115820D01*
X1758492Y2092198D01*
X1756918Y2080158D01*
X1754987Y2061819D01*
X1753362Y2036673D01*
X1752854Y2023770D01*
X1752600Y1996135D01*
X1753209Y1967382D01*
X1753870Y1954225D01*
X1754784Y1941779D01*
X1756003Y1929739D01*
X1757527Y1918055D01*
X1759356Y1906473D01*
X1761489Y1894890D01*
X1764030Y1883105D01*
X1766976Y1871014D01*
X1774088Y1845157D01*
X1778406Y1831492D01*
X1783130Y1817420D01*
X1788261Y1803247D01*
X1793697Y1789125D01*
X1805025Y1761896D01*
X1810766Y1749196D01*
X1816404Y1737360D01*
X1821891Y1726590D01*
X1827123Y1717141D01*
X1831949Y1709166D01*
X1836369Y1702816D01*
X1840280Y1698396D01*
X1842007Y1696974D01*
X1846834Y1694027D01*
X1851863Y1692046D01*
X1856892Y1691081D01*
X1861972Y1691030D01*
X1867001Y1691944D01*
X1871827Y1693824D01*
X1876501Y1696618D01*
X1880870Y1700377D01*
X1884121Y1703882D01*
X1886712Y1707438D01*
X1888591Y1711096D01*
X1889760Y1715007D01*
X1890166Y1719325D01*
X1889810Y1724152D01*
X1888642Y1729638D01*
X1886712Y1735988D01*
X1883918Y1743202D01*
X1875789Y1761134D01*
X1861312Y1790750D01*
X1855825Y1803095D01*
X1850694Y1815338D01*
X1845970Y1827530D01*
X1841652Y1839620D01*
X1837740Y1851761D01*
X1834134Y1863953D01*
X1830933Y1876196D01*
X1828088Y1888489D01*
X1825548Y1900986D01*
X1823415Y1913585D01*
X1821586Y1926437D01*
X1820062Y1939442D01*
X1818893Y1952752D01*
X1818030Y1966366D01*
X1817471Y1980285D01*
X1817217Y2008733D01*
X1817522Y2022297D01*
X1818081Y2035556D01*
X1818944Y2048510D01*
X1820113Y2061260D01*
X1821637Y2073859D01*
X1823415Y2086305D01*
X1825548Y2098598D01*
X1827987Y2110892D01*
X1830832Y2123084D01*
X1833981Y2135327D01*
X1837537Y2147620D01*
X1841398Y2160016D01*
X1845716Y2172512D01*
X1850389Y2185212D01*
X1855470Y2198116D01*
X1866849Y2224633D01*
X1879193Y2252218D01*
X1884070Y2263698D01*
X1887220Y2271776D01*
X1887931Y2274062D01*
X1888439Y2278329D01*
X1887982Y2282799D01*
X1886661Y2287371D01*
X1884578Y2291842D01*
X1881835Y2296007D01*
X1878482Y2299766D01*
X1874621Y2302916D01*
X1870405Y2305354D01*
X1865325Y2307234D01*
X1860499Y2308352D01*
G37*
G36*
X1980488Y2243429D02*
G01*
X1974900Y2242972D01*
X1969566Y2241753D01*
X1964740Y2239822D01*
X1960625Y2237181D01*
X1958086Y2234946D01*
X1955444Y2232202D01*
X1949957Y2225294D01*
X1944217Y2216607D01*
X1938324Y2206345D01*
X1932381Y2194712D01*
X1926386Y2181860D01*
X1920544Y2168093D01*
X1914906Y2153513D01*
X1909521Y2138375D01*
X1904542Y2122830D01*
X1899970Y2107133D01*
X1895957Y2091436D01*
X1893570Y2081022D01*
X1891741Y2071776D01*
X1890318Y2062988D01*
X1889353Y2053843D01*
X1888693Y2043531D01*
X1888337Y2031339D01*
X1888134Y1997913D01*
X1888489Y1968601D01*
X1888947Y1956054D01*
X1889658Y1944573D01*
X1890674Y1933905D01*
X1892046Y1923694D01*
X1893824Y1913737D01*
X1896008Y1903730D01*
X1898650Y1893417D01*
X1901799Y1882495D01*
X1905507Y1870710D01*
X1917090Y1837283D01*
X1924151Y1819148D01*
X1931009Y1803247D01*
X1937715Y1789582D01*
X1944319Y1778101D01*
X1947570Y1773174D01*
X1950770Y1768805D01*
X1953971Y1764944D01*
X1957171Y1761591D01*
X1960321Y1758797D01*
X1963470Y1756511D01*
X1966569Y1754733D01*
X1969668Y1753463D01*
X1972818Y1752701D01*
X1975916Y1752447D01*
X1981352Y1752803D01*
X1986584Y1753870D01*
X1991512Y1755546D01*
X1995982Y1757883D01*
X2000046Y1760778D01*
X2003552Y1764182D01*
X2006498Y1768093D01*
X2008733Y1772462D01*
X2010410Y1776780D01*
X2011375Y1780692D01*
X2011527Y1784756D01*
X2010714Y1789480D01*
X2008784Y1795475D01*
X2005533Y1803247D01*
X1989226Y1838299D01*
X1984044Y1850339D01*
X1979320Y1862328D01*
X1975053Y1874266D01*
X1971192Y1886254D01*
X1967738Y1898192D01*
X1964740Y1910181D01*
X1962150Y1922221D01*
X1959914Y1934362D01*
X1958136Y1946554D01*
X1956714Y1958797D01*
X1955749Y1971192D01*
X1955139Y1983739D01*
X1954936Y1996439D01*
X1955038Y2010156D01*
X1955546Y2023364D01*
X1956409Y2036165D01*
X1957679Y2048611D01*
X1959356Y2060803D01*
X1961438Y2072893D01*
X1964029Y2084832D01*
X1967077Y2096871D01*
X1970582Y2108962D01*
X1974646Y2121255D01*
X1979218Y2133854D01*
X1984400Y2146808D01*
X1990089Y2160219D01*
X2004466Y2191867D01*
X2007362Y2198827D01*
X2009495Y2204770D01*
X2010968Y2209749D01*
X2011781Y2214016D01*
X2011883Y2217724D01*
X2011324Y2220976D01*
X2010156Y2223922D01*
X2008378Y2226818D01*
X2005990Y2229713D01*
X2003043Y2232812D01*
X1997252Y2238095D01*
X1992172Y2241296D01*
X1986838Y2242972D01*
G37*
G36*
X2102967Y2183231D02*
G01*
X2098852Y2182926D01*
X2094839Y2181961D01*
X2090877Y2180183D01*
X2086914Y2177643D01*
X2083003Y2174290D01*
X2079040Y2170176D01*
X2075027Y2165248D01*
X2070963Y2159457D01*
X2066848Y2152802D01*
X2062632Y2145334D01*
X2053742Y2127605D01*
X2048357Y2115515D01*
X2043531Y2103170D01*
X2039264Y2090674D01*
X2035556Y2078024D01*
X2032355Y2065172D01*
X2029764Y2052269D01*
X2027732Y2039213D01*
X2026310Y2026056D01*
X2025396Y2012848D01*
X2025091Y1999589D01*
X2025345Y1986280D01*
X2026157Y1972970D01*
X2027580Y1959660D01*
X2029561Y1946351D01*
X2031796Y1933905D01*
X2034184Y1922881D01*
X2036724Y1912721D01*
X2039721Y1903069D01*
X2043226Y1893366D01*
X2047443Y1883156D01*
X2052574Y1871980D01*
X2064562Y1847596D01*
X2069439Y1838401D01*
X2073554Y1831339D01*
X2077262Y1826056D01*
X2080768Y1822196D01*
X2084374Y1819402D01*
X2088388Y1817319D01*
X2093112Y1815592D01*
X2098497Y1814423D01*
X2104034Y1814372D01*
X2109470Y1815439D01*
X2114753Y1817522D01*
X2119680Y1820519D01*
X2124202Y1824431D01*
X2128164Y1829155D01*
X2131415Y1834591D01*
X2136952Y1845970D01*
X2116937Y1888286D01*
X2111146Y1901139D01*
X2106371Y1912874D01*
X2102459Y1923796D01*
X2099310Y1934311D01*
X2096973Y1944776D01*
X2095246Y1955546D01*
X2094026Y1966975D01*
X2093366Y1979472D01*
X2093010Y1993341D01*
X2093061Y2008225D01*
X2093417Y2021687D01*
X2094179Y2034032D01*
X2095449Y2045462D01*
X2097227Y2056282D01*
X2099665Y2066747D01*
X2102713Y2077059D01*
X2106472Y2087575D01*
X2111095Y2098548D01*
X2116480Y2110181D01*
X2124760Y2127046D01*
X2129180Y2136698D01*
X2132279Y2144217D01*
X2133701Y2148636D01*
X2133752Y2157069D01*
X2131364Y2164943D01*
X2126894Y2171852D01*
X2120493Y2177237D01*
X2115921Y2179726D01*
X2111451Y2181606D01*
X2107133Y2182774D01*
G37*
G36*
X2217216Y2123186D02*
G01*
X2211832Y2122424D01*
X2206650Y2120595D01*
X2201621Y2117699D01*
X2196947Y2113737D01*
X2194407Y2110943D01*
X2189022Y2103628D01*
X2186178Y2099259D01*
X2180539Y2089251D01*
X2174951Y2078177D01*
X2169718Y2066442D01*
X2165146Y2054606D01*
X2161336Y2043125D01*
X2159812Y2037689D01*
X2157425Y2026056D01*
X2156460Y2019401D01*
X2155748Y2012696D01*
X2155291Y2005838D01*
X2155088Y1998929D01*
X2155444Y1985010D01*
X2155952Y1977999D01*
X2157679Y1964080D01*
X2158847Y1957171D01*
X2161895Y1943658D01*
X2165756Y1930603D01*
X2170430Y1918157D01*
X2173020Y1912213D01*
X2175814Y1906524D01*
X2178812Y1901037D01*
X2181961Y1895856D01*
X2185263Y1890928D01*
X2188768Y1886305D01*
X2192426Y1882038D01*
X2197404Y1876958D01*
X2202230Y1873046D01*
X2206955Y1870303D01*
X2211628Y1868627D01*
X2216353Y1868017D01*
X2221077Y1868525D01*
X2225954Y1870100D01*
X2230932Y1872742D01*
X2234692Y1875485D01*
X2238298Y1878888D01*
X2241651Y1882902D01*
X2244648Y1887220D01*
X2247188Y1891690D01*
X2249170Y1896160D01*
X2250389Y1900428D01*
X2250846Y1904288D01*
X2249830Y1908149D01*
X2247087Y1915007D01*
X2243023Y1923948D01*
X2225243Y1958746D01*
X2225243Y2037080D01*
X2238349Y2063242D01*
X2243277Y2073605D01*
X2246782Y2082292D01*
X2248916Y2089607D01*
X2249576Y2095804D01*
X2248916Y2101189D01*
X2246782Y2106066D01*
X2243277Y2110689D01*
X2238349Y2115312D01*
X2233269Y2118918D01*
X2228037Y2121408D01*
X2222652Y2122830D01*
G37*
M02*
