G04 Layer: TopLayer*
G04 EasyEDA v6.4.31, 2022-02-22 10:28:06*
G04 6662e514818145d9b8d05726a254f58a,bc126c73947d4e58bf32f0bec63d0957,10*
G04 Gerber Generator version 0.2*
G04 Scale: 100 percent, Rotated: No, Reflected: No *
G04 Dimensions in millimeters *
G04 leading zeros omitted , absolute positions ,4 integer and 5 decimal *
%FSLAX45Y45*%
%MOMM*%

%ADD10C,0.2540*%

%LPD*%
G36*
X2147570Y676351D02*
G01*
X2142998Y676097D01*
X2138172Y675030D01*
X2133092Y673100D01*
X2128824Y670712D01*
X2124964Y667562D01*
X2121611Y663803D01*
X2118868Y659587D01*
X2116785Y655167D01*
X2115464Y650595D01*
X2115007Y646074D01*
X2115515Y641807D01*
X2117547Y636016D01*
X2121611Y626059D01*
X2145284Y572414D01*
X2150567Y559409D01*
X2155444Y546608D01*
X2159914Y534009D01*
X2164029Y521614D01*
X2167737Y509270D01*
X2171090Y496976D01*
X2174087Y484784D01*
X2176729Y472541D01*
X2179015Y460248D01*
X2180996Y447852D01*
X2183333Y429056D01*
X2184501Y416306D01*
X2185365Y403301D01*
X2185924Y390042D01*
X2186228Y376529D01*
X2185974Y348030D01*
X2185416Y334111D01*
X2184552Y320548D01*
X2183384Y307238D01*
X2181860Y294182D01*
X2180031Y281381D01*
X2177897Y268732D01*
X2175357Y256286D01*
X2172512Y243941D01*
X2169312Y231698D01*
X2165756Y219557D01*
X2161794Y207416D01*
X2157476Y195275D01*
X2152751Y183083D01*
X2147620Y170891D01*
X2142134Y158546D01*
X2123186Y119329D01*
X2119528Y110998D01*
X2116734Y103733D01*
X2114804Y97434D01*
X2113635Y91897D01*
X2113280Y87071D01*
X2113686Y82753D01*
X2114854Y78892D01*
X2116734Y75234D01*
X2119325Y71678D01*
X2122576Y68122D01*
X2126945Y64363D01*
X2131618Y61569D01*
X2136444Y59740D01*
X2141474Y58826D01*
X2146554Y58826D01*
X2151634Y59842D01*
X2156612Y61823D01*
X2161489Y64719D01*
X2165045Y68122D01*
X2169210Y73558D01*
X2173884Y80721D01*
X2178913Y89458D01*
X2184247Y99618D01*
X2189835Y110947D01*
X2195525Y123240D01*
X2201265Y136296D01*
X2206955Y149910D01*
X2212492Y163931D01*
X2217775Y178104D01*
X2222754Y192278D01*
X2227275Y206146D01*
X2231288Y219608D01*
X2237994Y244906D01*
X2240737Y256794D01*
X2243074Y268478D01*
X2245969Y285800D01*
X2247442Y297535D01*
X2248662Y309524D01*
X2249576Y322021D01*
X2250236Y335127D01*
X2250846Y363880D01*
X2250744Y385013D01*
X2250389Y398018D01*
X2248966Y423367D01*
X2246528Y447954D01*
X2244953Y459943D01*
X2240991Y483616D01*
X2238603Y495300D01*
X2235911Y506882D01*
X2232964Y518414D01*
X2226208Y541375D01*
X2222347Y552907D01*
X2218232Y564388D01*
X2209038Y587603D01*
X2198573Y611124D01*
X2189886Y629056D01*
X2182114Y643940D01*
X2177643Y651611D01*
X2173274Y658215D01*
X2169007Y663702D01*
X2164791Y668223D01*
X2160574Y671677D01*
X2156358Y674166D01*
X2152040Y675690D01*
G37*
G36*
X2022957Y611174D02*
G01*
X2016607Y610717D01*
X2011273Y609092D01*
X2006193Y605840D01*
X2000453Y600557D01*
X1997456Y597458D01*
X1995068Y594563D01*
X1993290Y591718D01*
X1992122Y588721D01*
X1991563Y585470D01*
X1991664Y581812D01*
X1992477Y577545D01*
X1993950Y572516D01*
X1996084Y566623D01*
X2002637Y551484D01*
X2016302Y521208D01*
X2021738Y508050D01*
X2026564Y495249D01*
X2030882Y482854D01*
X2034692Y470662D01*
X2037994Y458622D01*
X2040788Y446633D01*
X2043125Y434644D01*
X2045004Y422503D01*
X2046478Y410209D01*
X2047493Y397560D01*
X2048205Y384606D01*
X2048510Y371144D01*
X2048459Y357835D01*
X2048052Y345236D01*
X2047239Y332740D01*
X2046071Y320446D01*
X2044496Y308203D01*
X2042464Y296062D01*
X2040077Y283972D01*
X2037232Y271983D01*
X2034032Y259994D01*
X2030374Y248005D01*
X2026310Y236067D01*
X2021789Y224078D01*
X2016861Y212090D01*
X2011527Y200050D01*
X2002485Y181051D01*
X1997913Y170992D01*
X1994712Y163271D01*
X1992731Y157276D01*
X1991918Y152552D01*
X1992071Y148488D01*
X1993036Y144526D01*
X1994712Y140208D01*
X1996948Y135890D01*
X1999894Y131978D01*
X2003399Y128524D01*
X2007463Y125679D01*
X2011984Y123342D01*
X2016861Y121615D01*
X2022093Y120599D01*
X2027529Y120192D01*
X2030628Y120446D01*
X2033778Y121208D01*
X2036876Y122478D01*
X2040026Y124256D01*
X2043125Y126542D01*
X2046325Y129336D01*
X2049475Y132689D01*
X2052675Y136550D01*
X2059127Y145897D01*
X2062429Y151333D01*
X2069084Y163931D01*
X2075840Y178714D01*
X2082800Y195732D01*
X2089962Y214985D01*
X2099868Y244500D01*
X2106218Y266395D01*
X2108606Y276555D01*
X2110587Y286512D01*
X2112111Y296519D01*
X2113330Y306933D01*
X2114194Y317957D01*
X2115108Y343103D01*
X2115312Y357733D01*
X2115108Y399084D01*
X2114753Y411327D01*
X2114092Y421640D01*
X2113127Y430784D01*
X2111705Y439572D01*
X2109876Y448767D01*
X2107488Y459232D01*
X2103475Y474878D01*
X2098954Y490575D01*
X2093925Y506120D01*
X2088540Y521258D01*
X2082901Y535838D01*
X2077059Y549656D01*
X2071065Y562457D01*
X2065121Y574090D01*
X2059228Y584403D01*
X2053488Y593090D01*
X2048002Y599998D01*
X2045360Y602742D01*
X2042871Y604926D01*
X2038705Y607568D01*
X2033879Y609549D01*
X2028545Y610768D01*
G37*
G36*
X1900478Y550976D02*
G01*
X1896313Y550519D01*
X1891995Y549351D01*
X1887575Y547522D01*
X1882952Y544982D01*
X1876552Y539597D01*
X1872081Y532739D01*
X1869744Y524814D01*
X1869744Y516382D01*
X1871167Y512013D01*
X1874316Y504443D01*
X1878685Y494792D01*
X1886966Y477926D01*
X1892401Y466293D01*
X1896973Y455371D01*
X1900732Y444855D01*
X1903831Y434492D01*
X1906219Y424078D01*
X1907997Y413258D01*
X1909267Y401828D01*
X1910029Y389483D01*
X1910435Y375970D01*
X1910283Y353974D01*
X1909825Y340817D01*
X1908860Y328930D01*
X1907438Y317855D01*
X1905406Y307289D01*
X1902663Y296824D01*
X1899157Y286156D01*
X1894839Y274878D01*
X1889556Y262636D01*
X1866493Y213766D01*
X1872030Y202387D01*
X1875282Y196900D01*
X1879244Y192176D01*
X1883765Y188264D01*
X1888693Y185267D01*
X1893976Y183184D01*
X1899412Y182168D01*
X1904949Y182168D01*
X1910334Y183337D01*
X1915058Y185064D01*
X1919071Y187147D01*
X1922729Y189941D01*
X1926183Y193802D01*
X1929892Y199085D01*
X1934006Y206146D01*
X1944776Y227126D01*
X1956003Y250901D01*
X1960219Y261112D01*
X1963724Y270814D01*
X1966722Y280517D01*
X1969312Y290626D01*
X1971649Y301701D01*
X1973884Y314147D01*
X1975916Y327406D01*
X1977288Y340715D01*
X1978152Y354025D01*
X1978406Y367334D01*
X1978050Y380593D01*
X1977186Y393801D01*
X1975713Y406958D01*
X1973681Y420014D01*
X1971090Y432968D01*
X1967890Y445770D01*
X1964182Y458470D01*
X1959914Y470966D01*
X1955088Y483260D01*
X1949704Y495401D01*
X1940864Y513080D01*
X1936597Y520598D01*
X1932482Y527202D01*
X1928418Y532993D01*
X1924405Y537972D01*
X1920443Y542086D01*
X1916531Y545388D01*
X1912569Y547928D01*
X1908606Y549706D01*
X1904593Y550722D01*
G37*
G36*
X1786229Y490931D02*
G01*
X1780793Y490626D01*
X1775409Y489204D01*
X1770176Y486664D01*
X1765096Y483057D01*
X1760169Y478434D01*
X1756664Y473862D01*
X1754530Y468985D01*
X1753870Y463600D01*
X1754581Y457352D01*
X1756664Y450037D01*
X1760169Y441350D01*
X1778203Y404825D01*
X1778203Y326542D01*
X1760423Y291744D01*
X1756359Y282803D01*
X1753616Y275894D01*
X1752600Y272084D01*
X1753057Y268173D01*
X1754327Y263906D01*
X1756257Y259435D01*
X1758797Y254965D01*
X1761794Y250647D01*
X1765147Y246684D01*
X1768754Y243230D01*
X1772513Y240487D01*
X1777492Y237845D01*
X1782368Y236270D01*
X1787093Y235762D01*
X1791817Y236372D01*
X1796491Y238048D01*
X1801215Y240842D01*
X1806041Y244754D01*
X1811020Y249783D01*
X1814677Y254101D01*
X1818182Y258724D01*
X1821484Y263601D01*
X1827631Y274269D01*
X1833016Y285902D01*
X1837689Y298348D01*
X1841550Y311404D01*
X1844598Y324967D01*
X1846732Y338785D01*
X1847494Y345744D01*
X1848307Y359714D01*
X1848357Y366674D01*
X1848154Y373583D01*
X1847697Y380441D01*
X1846072Y393801D01*
X1843633Y405485D01*
X1840331Y416559D01*
X1836115Y428243D01*
X1831136Y440131D01*
X1825752Y451612D01*
X1820113Y462178D01*
X1814423Y471424D01*
X1809038Y478688D01*
X1806498Y481482D01*
X1801825Y485444D01*
X1796846Y488391D01*
X1791614Y490220D01*
G37*
D10*
G75*
G01
X3250006Y1999996D02*
G03X3250006Y1999996I-1250010J0D01*
M02*
