G04 Layer: BottomSilkscreenLayer*
G04 EasyEDA v6.4.31, 2022-02-22 10:28:06*
G04 6662e514818145d9b8d05726a254f58a,bc126c73947d4e58bf32f0bec63d0957,10*
G04 Gerber Generator version 0.2*
G04 Scale: 100 percent, Rotated: No, Reflected: No *
G04 Dimensions in millimeters *
G04 leading zeros omitted , absolute positions ,4 integer and 5 decimal *
%FSLAX45Y45*%
%MOMM*%

%ADD10C,0.0001*%

%LPD*%
G36*
X2076450Y23368D02*
G01*
X2076450Y15747D01*
X2076957Y13970D01*
X2078228Y12954D01*
X2079091Y12547D01*
X2080971Y12496D01*
X2082800Y13208D01*
X2082292Y14985D01*
X2081530Y14478D01*
X2079498Y14478D01*
X2078736Y15240D01*
X2078482Y16256D01*
X2078482Y23368D01*
G37*
G36*
X2072132Y23368D02*
G01*
X2072132Y14478D01*
X2066798Y14478D01*
X2066798Y12700D01*
X2074418Y12700D01*
X2074418Y23368D01*
G37*
G36*
X2061210Y23368D02*
G01*
X2058670Y22860D01*
X2057146Y21082D01*
X2058670Y20066D01*
X2059939Y21285D01*
X2061565Y21590D01*
X2062988Y21082D01*
X2064257Y19304D01*
X2064207Y17322D01*
X2063699Y15747D01*
X2062480Y14732D01*
X2061921Y14528D01*
X2060193Y14478D01*
X2058924Y15544D01*
X2058670Y16002D01*
X2056892Y14985D01*
X2057247Y14274D01*
X2058670Y13258D01*
X2060397Y12750D01*
X2062429Y12852D01*
X2064257Y13563D01*
X2065020Y14224D01*
X2066036Y16002D01*
X2066543Y18034D01*
X2066036Y20066D01*
X2065020Y21844D01*
X2064359Y22453D01*
X2062429Y23215D01*
G37*
G36*
X2050288Y23368D02*
G01*
X2050288Y15747D01*
X2050796Y13970D01*
X2052066Y12954D01*
X2052929Y12547D01*
X2054809Y12496D01*
X2056638Y13208D01*
X2056130Y14985D01*
X2055368Y14478D01*
X2053336Y14478D01*
X2052574Y15240D01*
X2052320Y16256D01*
X2052320Y23368D01*
G37*
G36*
X2045970Y23368D02*
G01*
X2045970Y14478D01*
X2040636Y14478D01*
X2040636Y12700D01*
X2048256Y12700D01*
X2048256Y23368D01*
G37*
G36*
X2035048Y23368D02*
G01*
X2032507Y22860D01*
X2030984Y21082D01*
X2032507Y20066D01*
X2033778Y21285D01*
X2035403Y21590D01*
X2036673Y21082D01*
X2038096Y19304D01*
X2038045Y17322D01*
X2037689Y16052D01*
X2036825Y15036D01*
X2035403Y14478D01*
X2034032Y14478D01*
X2032762Y15544D01*
X2032507Y16002D01*
X2030730Y14985D01*
X2031746Y13716D01*
X2033270Y12954D01*
X2035048Y12700D01*
X2038045Y13563D01*
X2038857Y14224D01*
X2040280Y17018D01*
X2040331Y18542D01*
X2039721Y20472D01*
X2038502Y22199D01*
X2036825Y23063D01*
G37*
G36*
X2024125Y23368D02*
G01*
X2024227Y15240D01*
X2024888Y13614D01*
X2026310Y12750D01*
X2028291Y12446D01*
X2029561Y12801D01*
X2030222Y13208D01*
X2029968Y14985D01*
X2029206Y14478D01*
X2027174Y14478D01*
X2026208Y15595D01*
X2026157Y23368D01*
G37*
G36*
X2019807Y23368D02*
G01*
X2019807Y14478D01*
X2014474Y14478D01*
X2014474Y12700D01*
X2022093Y12700D01*
X2022093Y23368D01*
G37*
G36*
X2008886Y23368D02*
G01*
X2007463Y23215D01*
X2006346Y22860D01*
X2004822Y21082D01*
X2006346Y20066D01*
X2007616Y21285D01*
X2009241Y21590D01*
X2010511Y21082D01*
X2011934Y19304D01*
X2011883Y17322D01*
X2011172Y15494D01*
X2009902Y14630D01*
X2007870Y14478D01*
X2006752Y15392D01*
X2006346Y16002D01*
X2004568Y14985D01*
X2005584Y13716D01*
X2007107Y12954D01*
X2008886Y12700D01*
X2010054Y12852D01*
X2011883Y13563D01*
X2012696Y14224D01*
X2014118Y17018D01*
X2014118Y19050D01*
X2013051Y21336D01*
X2012340Y22199D01*
X2010105Y23215D01*
G37*
G36*
X1997964Y23368D02*
G01*
X1997964Y15747D01*
X1998472Y13970D01*
X1999742Y12954D01*
X2000656Y12547D01*
X2002485Y12496D01*
X2004060Y13208D01*
X2003806Y14985D01*
X2003043Y14478D01*
X2000757Y14478D01*
X2000046Y15595D01*
X1999996Y23368D01*
G37*
G36*
X1993646Y23368D02*
G01*
X1993646Y14478D01*
X1988312Y14478D01*
X1988312Y12700D01*
X1995678Y12700D01*
X1995678Y23368D01*
G37*
G36*
X1982724Y23368D02*
G01*
X1980184Y22860D01*
X1978660Y21082D01*
X1980184Y20066D01*
X1981454Y21285D01*
X1983079Y21590D01*
X1984349Y21082D01*
X1985213Y20066D01*
X1985619Y19050D01*
X1985721Y17322D01*
X1985010Y15494D01*
X1983739Y14630D01*
X1981707Y14478D01*
X1980438Y15544D01*
X1980184Y16002D01*
X1978406Y14985D01*
X1978761Y14274D01*
X1980184Y13258D01*
X1981911Y12750D01*
X1983841Y12852D01*
X1985721Y13563D01*
X1986534Y14224D01*
X1987550Y16002D01*
X1987804Y17526D01*
X1987753Y19050D01*
X1987397Y20472D01*
X1986127Y22199D01*
X1984502Y23063D01*
G37*
M02*
